HIERARCHY
ROOT hip
{
  OFFSET 0 0 0
  CHANNELS 6 Xposition Yposition Zposition Zrotation Yrotation Xrotation
  JOINT abdomen
  {
    OFFSET 0 20.6881 -0.73152
    CHANNELS 3 Zrotation Xrotation Yrotation
    JOINT chest
    {
      OFFSET 0 11.7043 -0.48768
      CHANNELS 3 Zrotation Xrotation Yrotation
      JOINT neck
      {
        OFFSET 0 22.1894 -2.19456
        CHANNELS 3 Zrotation Xrotation Yrotation
        JOINT head
        {
          OFFSET -0.24384 7.07133 1.2192
          CHANNELS 3 Zrotation Xrotation Yrotation
          JOINT leftEye
          {
            OFFSET 4.14528 8.04674 8.04672
            CHANNELS 3 Zrotation Xrotation Yrotation
            End Site
            {
              OFFSET 1 0 0
            }
          }
          JOINT rightEye
          {
            OFFSET -3.6576 8.04674 8.04672
            CHANNELS 3 Zrotation Xrotation Yrotation
            End Site
            {
              OFFSET 1 0 0
            }
          }
        }
      }
      JOINT rCollar
      {
        OFFSET -2.68224 19.2634 -4.8768
        CHANNELS 3 Zrotation Xrotation Yrotation
        JOINT rShldr
        {
          OFFSET -8.77824 -1.95073 1.46304
          CHANNELS 3 Zrotation Xrotation Yrotation
          JOINT rForeArm
          {
            OFFSET -28.1742 -1.7115 0.48768
            CHANNELS 3 Zrotation Xrotation Yrotation
            JOINT rHand
            {
              OFFSET -22.5879 0.773209 7.07136
              CHANNELS 3 Zrotation Xrotation Yrotation
              JOINT rThumb1
              {
                OFFSET -1.2192 -0.487915 3.41376
                CHANNELS 3 Zrotation Xrotation Yrotation
                JOINT rThumb2
                {
                  OFFSET -3.37035 -0.52449 3.41376
                  CHANNELS 3 Zrotation Xrotation Yrotation
                  End Site
                  {
                    OFFSET -1.78271 -1.18214 1.43049
                  }
                }
              }
              JOINT rIndex1
              {
                OFFSET -7.75947 0.938293 5.60832
                CHANNELS 3 Zrotation Xrotation Yrotation
                JOINT rIndex2
                {
                  OFFSET -2.54057 -0.884171 1.56538
                  CHANNELS 3 Zrotation Xrotation Yrotation
                  End Site
                  {
                    OFFSET -1.62519 -0.234802 1.16502
                  }
                }
              }
              JOINT rMid1
              {
                OFFSET -8.24714 1.18213 3.41376
                CHANNELS 3 Zrotation Xrotation Yrotation
                JOINT rMid2
                {
                  OFFSET -3.10165 -0.590103 1.0647
                  CHANNELS 3 Zrotation Xrotation Yrotation
                  End Site
                  {
                    OFFSET -2.48547 -0.328903 0.83742
                  }
                }
              }
              JOINT rRing1
              {
                OFFSET -8.82822 0.546677 1.51678
                CHANNELS 3 Zrotation Xrotation Yrotation
                JOINT rRing2
                {
                  OFFSET -2.60934 -0.819778 -0.0198488
                  CHANNELS 3 Zrotation Xrotation Yrotation
                  End Site
                  {
                    OFFSET -2.33842 -0.294052 0.168128
                  }
                }
              }
              JOINT rPinky1
              {
                OFFSET -8.27202 -0.0477905 -0.4584
                CHANNELS 3 Zrotation Xrotation Yrotation
                JOINT rPinky2
                {
                  OFFSET -1.82734 -0.647385 -0.700984
                  CHANNELS 3 Zrotation Xrotation Yrotation
                  End Site
                  {
                    OFFSET -1.69225 -0.51767 -0.607171
                  }
                }
              }
            }
          }
        }
      }
      JOINT lCollar
      {
        OFFSET 2.68224 19.2634 -4.8768
        CHANNELS 3 Zrotation Xrotation Yrotation
        JOINT lShldr
        {
          OFFSET 8.77824 -1.95073 1.46304
          CHANNELS 3 Zrotation Xrotation Yrotation
          JOINT lForeArm
          {
            OFFSET 28.1742 -1.7115 0.48768
            CHANNELS 3 Zrotation Xrotation Yrotation
            JOINT lHand
            {
              OFFSET 22.5879 0.773209 7.07136
              CHANNELS 3 Zrotation Xrotation Yrotation
              JOINT lThumb1
              {
                OFFSET 1.2192 -0.487915 3.41376
                CHANNELS 3 Zrotation Xrotation Yrotation
                JOINT lThumb2
                {
                  OFFSET 3.37035 -0.52449 3.41376
                  CHANNELS 3 Zrotation Xrotation Yrotation
                  End Site
                  {
                    OFFSET 1.78271 -1.18214 1.43049
                  }
                }
              }
              JOINT lIndex1
              {
                OFFSET 7.75947 0.938293 5.60832
                CHANNELS 3 Zrotation Xrotation Yrotation
                JOINT lIndex2
                {
                  OFFSET 2.54057 -0.884171 1.56538
                  CHANNELS 3 Zrotation Xrotation Yrotation
                  End Site
                  {
                    OFFSET 1.62519 -0.234802 1.16502
                  }
                }
              }
              JOINT lMid1
              {
                OFFSET 8.24714 1.18213 3.41376
                CHANNELS 3 Zrotation Xrotation Yrotation
                JOINT lMid2
                {
                  OFFSET 3.10165 -0.590103 1.0647
                  CHANNELS 3 Zrotation Xrotation Yrotation
                  End Site
                  {
                    OFFSET 2.48547 -0.328903 0.83742
                  }
                }
              }
              JOINT lRing1
              {
                OFFSET 8.82822 0.546677 1.51678
                CHANNELS 3 Zrotation Xrotation Yrotation
                JOINT lRing2
                {
                  OFFSET 2.60934 -0.819778 -0.0198488
                  CHANNELS 3 Zrotation Xrotation Yrotation
                  End Site
                  {
                    OFFSET 2.33842 -0.294052 0.168128
                  }
                }
              }
              JOINT lPinky1
              {
                OFFSET 8.27202 -0.0477905 -0.4584
                CHANNELS 3 Zrotation Xrotation Yrotation
                JOINT lPinky2
                {
                  OFFSET 1.82734 -0.647385 -0.700984
                  CHANNELS 3 Zrotation Xrotation Yrotation
                  End Site
                  {
                    OFFSET 1.69225 -0.51767 -0.607171
                  }
                }
              }
            }
          }
        }
      }
    }
  }
  JOINT rButtock
  {
    OFFSET -8.77824 4.35084 1.2192
    CHANNELS 3 Zrotation Xrotation Yrotation
    JOINT rThigh
    {
      OFFSET 0 -1.70687 -2.19456
      CHANNELS 3 Zrotation Xrotation Yrotation
      JOINT rShin
      {
        OFFSET 0 -36.8199 0.73152
        CHANNELS 3 Zrotation Xrotation Yrotation
        JOINT rFoot
        {
          OFFSET 0.73152 -45.1104 -5.12064
          CHANNELS 3 Zrotation Xrotation Yrotation
          End Site
          {
            OFFSET -1.1221 -3.69964 12.103
          }
        }
      }
    }
  }
  JOINT lButtock
  {
    OFFSET 8.77824 4.35084 1.2192
    CHANNELS 3 Zrotation Xrotation Yrotation
    JOINT lThigh
    {
      OFFSET 0 -1.70687 -2.19456
      CHANNELS 3 Zrotation Xrotation Yrotation
      JOINT lShin
      {
        OFFSET 0 -36.8199 0.73152
        CHANNELS 3 Zrotation Xrotation Yrotation
        JOINT lFoot
        {
          OFFSET -0.73152 -45.1104 -5.12064
          CHANNELS 3 Zrotation Xrotation Yrotation
          End Site
          {
            OFFSET 1.1221 -3.69964 12.103
          }
        }
      }
    }
  }
}
MOTION
Frames:	4
Frame Time:	0.03333
-11.788189977075628 51.707301658704964 -55.863000222969546 -17.329500198364258 -29.213703155517578 13.295999526977539 14.623498916625977 9.3295316696167 2.9758095741271973 2.18822979927063 -6.8964104652404785 0.9434080123901367 0.035702094435691833 12.418299674987793 7.6591997146606445 3.7298502922058105 -23.163000106811523 15.90119743347168 -0.0 0.0 -0.0 -0.0 0.0 -0.0 2.573949828776033e-14 1.225969992164162e-14 -1.0820199445628342e-13 105.94300079345703 45.66830062866211 -57.14719009399414 -26.66619873046875 -44.85419845581055 93.16229248046875 -4.905129432678223 -51.453399658203125 -10.159500122070312 1.1869399907382672e-09 -1.9160997233313992e-09 9.637320108613068e-11 2.0413399859364745e-09 -3.205429921493419e-09 2.1552498674637377e-10 1.1869399907382672e-09 -1.9161099373832258e-09 9.636539483048878e-11 7.730909824371338 5.474879741668701 0.4173140823841095 1.1869399907382672e-09 -1.9160997233313992e-09 9.637509540416644e-11 2.9055399894714355 0.9651829600334167 0.10290199518203735 1.1869399907382672e-09 -1.9160997233313992e-09 9.637569908793608e-11 10.27859878540039 0.73180091381073 0.025912316516041756 1.1869399907382672e-09 -1.9160997233313992e-09 9.63854968061284e-11 2.221669912338257 -0.733487069606781 -0.208919957280159 2.551649992373669e-14 1.2251498948646303e-14 -1.0837699823944974e-13 -47.662696838378906 16.446800231933594 -35.51539993286133 14.347700119018555 -7.238491535186768 -26.256397247314453 1.9172698259353638 36.090606689453125 -5.880220413208008 6.063380353360515e-10 5.937129454736123e-09 2.2328399129634136e-09 1.1113099329662646e-09 1.0035098974015e-08 3.835419981612631e-09 6.063209934126235e-10 5.937160096891603e-09 2.232859896977857e-09 -7.730909824371338 5.474879741668701 -0.4173140823841095 6.063359814234559e-10 5.937129454736123e-09 2.232849904970635e-09 -2.9055399894714355 0.9651829600334167 -0.10290199518203735 6.063309854198451e-10 5.937129454736123e-09 2.2328399129634136e-09 -10.27859878540039 0.73180091381073 -0.025912316516041756 6.063409774270667e-10 5.937120128862716e-09 2.2328399129634136e-09 -2.221669912338257 -0.733487069606781 0.208919957280159 -2.0321699480147914e-16 0.0 -3.8825099822884138e-19 -10.739201545715332 12.494999885559082 -2.9389595985412598 0.07627620548009872 31.85489845275879 2.502850294113159 -8.367090225219727 -16.341299057006836 -33.09729766845703 2.0321699480147914e-16 0.0 3.8825099822884138e-19 86.23249816894531 -51.92411422729492 73.97139739990234 3.8649392127990723 76.34249877929688 -3.4378395080566406 -0.505731999874115 0.9094139337539673 -6.022049903869629
-11.754389975549866 51.690198865023255 -55.86000022287606 -17.208799362182617 -29.227399826049805 13.281201362609863 14.521200180053711 9.274250030517578 2.94773006439209 2.195960283279419 -6.876880168914795 0.9307509660720825 0.036837998777627945 12.459099769592285 7.6498284339904785 3.6554601192474365 -23.32180404663086 15.876297950744629 -0.0 0.0 -0.0 -0.0 0.0 -0.0 2.752550113836391e-14 -1.4063299034691463e-14 -1.7627698888252052e-13 105.94499206542969 45.60249328613281 -57.1692008972168 -26.65960121154785 -44.869300842285156 93.193603515625 -4.917099475860596 -51.49480056762695 -10.174799919128418 1.762939905169958e-09 -2.9228099940326047e-09 1.1392199683601945e-10 3.0342999224330924e-09 -4.901019590164424e-09 2.6772398187269175e-10 1.762950008199482e-09 -2.9228199860398263e-09 1.1390999948845959e-10 7.730909824371338 5.474879741668701 0.4173140823841095 1.762939905169958e-09 -2.9228099940326047e-09 1.1392400217635767e-10 2.9055399894714355 0.9651829600334167 0.10290199518203735 1.762950008199482e-09 -2.9228099940326047e-09 1.1392499443818593e-10 10.27859878540039 0.73180091381073 0.025912316516041756 1.762939905169958e-09 -2.9228099940326047e-09 1.139340011224732e-10 2.221669912338257 -0.733487069606781 -0.208919957280159 2.725779637538419e-14 -1.4066498278133242e-14 -1.7643898223961701e-13 -47.57469940185547 16.534198760986328 -35.57429885864258 14.333499908447266 -7.226761817932129 -26.22749900817871 1.954819917678833 36.3838996887207 -5.943859100341797 1.2710799079940216e-09 7.301789839431194e-09 3.0401900996679387e-09 2.2817401301722384e-09 1.2269600446757067e-08 5.208839581882785e-09 1.2710599239795783e-09 7.301799609393811e-09 3.0401998696305554e-09 -7.730909824371338 5.474879741668701 -0.4173140823841095 1.2710699159868e-09 7.301779625379368e-09 3.0401900996679387e-09 -2.9055399894714355 0.9651829600334167 -0.10290199518203735 1.2710699159868e-09 7.301779625379368e-09 3.0401900996679387e-09 -10.27859878540039 0.73180091381073 -0.025912316516041756 1.2710799079940216e-09 7.301779625379368e-09 3.040179885616112e-09 -2.221669912338257 -0.733487069606781 0.208919957280159 -2.0321699480147914e-16 0.0 -3.8825099822884138e-19 -10.83060073852539 12.49329948425293 -2.8709800243377686 0.07695979624986649 31.78369903564453 2.5022597312927246 -8.361909866333008 -16.326900482177734 -33.10400390625 2.0321699480147914e-16 0.0 3.8825099822884138e-19 86.27530670166016 -51.86760330200195 74.27069854736328 3.878420829772949 76.36431884765625 -3.4385597705841064 -0.5150859951972961 0.8932580947875977 -6.182889938354492
-11.749689975389506 51.658001353275814 -55.86600022306303 -17.218700408935547 -29.10780143737793 13.307698249816895 14.576898574829102 9.244091033935547 2.8116800785064697 2.1987597942352295 -6.839970588684082 0.8898379802703857 0.01641860045492649 12.51140022277832 7.667169570922852 3.61326003074646 -23.480398178100586 15.911699295043945 -0.0 0.0 -0.0 -0.0 0.0 -0.0 -1.013429994762248e-13 -2.230349693994882e-13 6.753239867275315e-14 105.78898620605469 45.544593811035156 -56.945396423339844 -26.68260383605957 -44.815101623535156 93.08290100097656 -4.883969783782959 -51.3795051574707 -10.13239860534668 -2.0593998728557494e-10 1.4039398810172798e-10 -1.1353999684882154e-10 -3.4883396171636605e-10 2.1410899442297904e-10 -2.0516699450467968e-10 -2.0593099447907548e-10 1.4038699369667285e-10 -1.135599947410526e-10 7.730909824371338 5.474879741668701 0.4173140823841095 -2.0593700356119626e-10 1.4037800089017338e-10 -1.135439936517102e-10 2.9055399894714355 0.9651829600334167 0.10290199518203735 -2.059360043604741e-10 1.403860083737385e-10 -1.1354099604954371e-10 10.27859878540039 0.73180091381073 0.025912316516041756 -2.0594799476914005e-10 1.4038900597590498e-10 -1.1353399470559467e-10 2.221669912338257 -0.733487069606781 -0.208919957280159 -1.0156499664730478e-13 -2.230389809475264e-13 6.729719456395958e-14 -47.53479766845703 16.50330352783203 -35.64139938354492 14.282599449157715 -7.184790134429932 -26.124401092529297 2.0018796920776367 36.74460220336914 -6.022860050201416 9.336410117244398e-11 -3.1801496991334943e-09 -9.390189736890875e-10 1.3576098578660378e-10 -5.438649974820464e-09 -1.6231099797536785e-09 9.335920231334782e-11 -3.1801699051925425e-09 -9.390109800833102e-10 -7.730909824371338 5.474879741668701 -0.4173140823841095 9.336379586111221e-11 -3.180159913185321e-09 -9.390249688934205e-10 -2.9055399894714355 0.9651829600334167 -0.10290199518203735 9.335449774328097e-11 -3.180159913185321e-09 -9.390229704919761e-10 -10.27859878540039 0.73180091381073 -0.025912316516041756 9.337569606415741e-11 -3.180159913185321e-09 -9.390359601013643e-10 -2.221669912338257 -0.733487069606781 0.208919957280159 -2.0321699480147914e-16 0.0 -3.8825099822884138e-19 -10.752700805664062 12.579999923706055 -2.8563296794891357 0.07832249999046326 31.672801971435547 2.503109931945801 -8.31566047668457 -16.18579864501953 -33.19919967651367 2.0321699480147914e-16 0.0 3.8825099822884138e-19 86.46929168701172 -51.92320251464844 74.55400085449219 3.9002597332000732 76.40689086914062 -3.4486992359161377 -0.5212710499763489 0.9093520045280457 -6.337610721588135
-11.757589975455042 51.61639867104127 -55.874000223034415 -17.325899124145508 -28.896804809570312 13.373899459838867 14.709599494934082 9.22206974029541 2.700509786605835 2.187800407409668 -6.815190315246582 0.8574700951576233 0.004902220331132412 12.543100357055664 7.667250633239746 3.6191396713256836 -23.534101486206055 15.916095733642578 -0.0 0.0 -0.0 -0.0 0.0 -0.0 -1.3110600421333083e-14 -9.923559505598326e-14 3.0713401114913774e-13 105.7040023803711 45.54130172729492 -56.86459732055664 -26.69580078125 -44.78340530395508 93.01850128173828 -4.823390007019043 -51.16699981689453 -10.05479907989502 -1.5781800311032157e-09 2.505919916018229e-09 -1.522200004933083e-10 -2.7131699109617102e-09 4.1956602636616935e-09 -3.2424099516425997e-10 -1.578170039095994e-09 2.505919916018229e-09 -1.5224099758626153e-10 7.730909824371338 5.474879741668701 0.4173140823841095 -1.578170039095994e-09 2.5059097019664023e-09 -1.5222699489836344e-10 2.9055399894714355 0.9651829600334167 0.10290199518203735 -1.578170039095994e-09 2.5059097019664023e-09 -1.5222399729619696e-10 10.27859878540039 0.73180091381073 0.025912316516041756 -1.5781800311032157e-09 2.505919916018229e-09 -1.5221898741479833e-10 2.221669912338257 -0.733487069606781 -0.208919957280159 -1.3259099696546865e-14 -9.923930167216044e-14 3.06911993649267e-13 -47.52470016479492 16.450794219970703 -35.74610137939453 14.220300674438477 -7.133670806884766 -25.998300552368164 2.0122900009155273 36.82280349731445 -6.040149688720703 -8.41679004270901e-10 -9.767809672212024e-09 -3.5670297826584374e-09 -1.5518599738584271e-09 -1.6536798597144298e-08 -6.128409779648791e-09 -8.416800034716232e-10 -9.767838982099875e-09 -3.5670297826584374e-09 -7.730909824371338 5.474879741668701 -0.4173140823841095 -8.416780050701789e-10 -9.767809672212024e-09 -3.567039996710264e-09 -2.9055399894714355 0.9651829600334167 -0.10290199518203735 -8.416889407669714e-10 -9.767809672212024e-09 -3.567039996710264e-09 -10.27859878540039 0.73180091381073 -0.025912316516041756 -8.416669583510838e-10 -9.767809672212024e-09 -3.5670499887174856e-09 -2.221669912338257 -0.733487069606781 0.208919957280159 -2.0321699480147914e-16 0.0 -3.8825099822884138e-19 -10.622600555419922 12.73740005493164 -2.8849403858184814 0.08023609966039658 31.498403549194336 2.502260208129883 -8.22900104522705 -16.02300453186035 -33.23680114746094 2.0321699480147914e-16 0.0 3.8825099822884138e-19 86.76219177246094 -51.97520065307617 74.84769439697266 3.934920072555542 76.48589324951172 -3.4722492694854736 -0.5263919234275818 0.9244150519371033 -6.496979713439941
